<?xml version="1.0" encoding="iso-8859-1"?>
<!-- Generator: Adobe Illustrator 18.0.0, SVG Export Plug-In . SVG Version: 6.00 Build 0)  -->
<!DOCTYPE svg PUBLIC "-//W3C//DTD SVG 1.1//EN" "http://www.w3.org/Graphics/SVG/1.1/DTD/svg11.dtd">
<svg version="1.1" id="Capa_1" xmlns="http://www.w3.org/2000/svg" xmlns:xlink="http://www.w3.org/1999/xlink" x="0px" y="0px"
	 viewBox="0 0 385.104 385.104" style="enable-background:new 0 0 385.104 385.104;" xml:space="preserve">
<path style="stroke:#000000;stroke-width:0;stroke-linecap:round;stroke-linejoin:round;" d="M229.485,220.028l118.336,28.079
	v-29.471l-34.217-24.357c0.514-8.735,0.021-17.522-1.525-26.148c-9.332-4.706-14-4.709-23.333,0
	c-0.457,2.55-0.797,5.116-1.074,7.688l-17.522-12.475c0.704-9.339,0.251-18.756-1.403-27.987c-9.332-4.706-14-4.709-23.333,0
	c-0.563,3.14-0.982,6.302-1.273,9.474l-15.057-10.719c-1.074-32.458-3.178-64.914-6.358-97.364c0,0-3.607-36.748-30.173-36.748
	c-26.567,0-30.173,36.748-30.173,36.748c-3.181,32.45-5.284,64.906-6.358,97.364l-15.057,10.719c-0.29-3.172-0.71-6.334-1.272-9.474
	c-9.334-4.709-14.002-4.706-23.333,0c-1.655,9.231-2.107,18.649-1.403,27.988l-17.522,12.474c-0.277-2.572-0.617-5.139-1.074-7.688
	c-9.334-4.709-14.002-4.706-23.334,0c-1.546,8.626-2.039,17.414-1.525,26.148l-34.216,24.357v29.471l118.335-28.079
	c0.893,36.905,3.144,73.809,6.761,110.704c0,0,0.209,2.063,0.789,5.298l-48.217,34.339v14.734l63.632-15.104
	c3.762,3.343,8.36,5.481,13.969,5.481s10.207-2.139,13.969-5.481l63.632,15.104v-14.734l-48.217-34.339
	c0.58-3.235,0.789-5.298,0.789-5.298C226.341,293.837,228.593,256.934,229.485,220.028z"/>
<g>
</g>
<g>
</g>
<g>
</g>
<g>
</g>
<g>
</g>
<g>
</g>
<g>
</g>
<g>
</g>
<g>
</g>
<g>
</g>
<g>
</g>
<g>
</g>
<g>
</g>
<g>
</g>
<g>
</g>
</svg>
