<?xml version="1.0" encoding="iso-8859-1"?>
<!-- Generator: Adobe Illustrator 16.0.0, SVG Export Plug-In . SVG Version: 6.00 Build 0)  -->
<!DOCTYPE svg PUBLIC "-//W3C//DTD SVG 1.1//EN" "http://www.w3.org/Graphics/SVG/1.1/DTD/svg11.dtd">
<svg version="1.1" id="Capa_1" xmlns="http://www.w3.org/2000/svg" xmlns:xlink="http://www.w3.org/1999/xlink" x="0px" y="0px"
	 width="486.349px" height="486.349px" viewBox="0 0 486.349 486.349" style="enable-background:new 0 0 486.349 486.349;"
	 xml:space="preserve">
<g>
	<g>
		<path d="M217.665,392.143h-3.925c-3.252,0-5.889,2.641-5.889,5.891v82.429c0,3.25,2.637,5.887,5.889,5.887h3.925
			c3.25,0,5.887-2.637,5.887-5.887v-82.429C223.552,394.783,220.915,392.143,217.665,392.143z"/>
		<path d="M408.32,3.268c-4.601-4.601-12.358-4.294-17.336,0.682L271.013,123.913C264.381-9.687,239.252,9.439,239.252,9.439
			s-24.329-21.344-31.424,106.96L95.37,3.941C90.395-1.034,82.636-1.341,78.036,3.26c-4.601,4.599-4.294,12.357,0.681,17.334
			l127.815,127.813c-0.345,12.419-0.547,25.92-0.605,40.601l-6.877,6.877h-14.751v14.751L78.711,316.226
			c-4.976,4.974-5.284,12.731-0.684,17.332s12.359,4.292,17.334-0.681l88.937-88.938v14.748h23.552c0,0,9.572,52.99,15.458,65.745
			c5.889,12.76,0.243,130.515,15.943,130.515c2.914,0,5.086-4.056,6.734-10.74l48.218-20.662v-7.851h-44.467
			c2.585-35.494,1.836-83.387,5.467-91.262c5.883-12.755,15.448-65.745,15.448-65.745h23.552v-22.6l96.779,96.79
			c4.978,4.973,12.735,5.281,17.336,0.681s4.292-12.358-0.685-17.332l-113.431-113.44v-6.901h-6.9l-14.764-14.766
			c-0.068-8.77-0.2-17.138-0.377-25.054L407.643,20.602C412.612,15.625,412.92,7.858,408.32,3.268z"/>
	</g>
</g>
<g>
</g>
<g>
</g>
<g>
</g>
<g>
</g>
<g>
</g>
<g>
</g>
<g>
</g>
<g>
</g>
<g>
</g>
<g>
</g>
<g>
</g>
<g>
</g>
<g>
</g>
<g>
</g>
<g>
</g>
</svg>
