<?xml version="1.0" encoding="iso-8859-1"?>
<!-- Generator: Adobe Illustrator 19.0.0, SVG Export Plug-In . SVG Version: 6.00 Build 0)  -->
<svg version="1.1" id="Capa_1" xmlns="http://www.w3.org/2000/svg" xmlns:xlink="http://www.w3.org/1999/xlink" x="0px" y="0px"
	 viewBox="0 0 394.832 394.832" style="enable-background:new 0 0 394.832 394.832;" xml:space="preserve">
<g>
	<path id="Shuttle" d="M231.351,376.324c-1.697,0-3.085,1.388-3.085,3.085v12.338c0,1.696,1.388,3.085,3.085,3.085
		c1.697,0,3.085-1.388,3.085-3.085v-12.338C234.436,377.712,233.048,376.324,231.351,376.324L231.351,376.324z M219.013,376.324
		c-1.697,0-3.085,1.388-3.085,3.085v12.338c0,1.696,1.388,3.085,3.085,3.085c1.697,0,3.085-1.388,3.085-3.085v-12.338
		C222.097,377.712,220.709,376.324,219.013,376.324L219.013,376.324z M206.674,376.324c-1.697,0-3.085,1.388-3.085,3.085v12.338
		c0,1.696,1.388,3.085,3.085,3.085c1.697,0,3.085-1.388,3.085-3.085v-12.338C209.759,377.712,208.371,376.324,206.674,376.324
		L206.674,376.324z M188.167,376.324c-1.697,0-3.085,1.388-3.085,3.085v12.338c0,1.696,1.388,3.085,3.085,3.085
		c1.697,0,3.085-1.388,3.085-3.085v-12.338C191.251,377.712,189.863,376.324,188.167,376.324L188.167,376.324z M175.828,376.324
		c-1.697,0-3.085,1.388-3.085,3.085v12.338c0,1.696,1.388,3.085,3.085,3.085c1.697,0,3.085-1.388,3.085-3.085v-12.338
		C178.913,377.712,177.525,376.324,175.828,376.324L175.828,376.324z M163.49,376.324c-1.697,0-3.085,1.388-3.085,3.085v12.338
		c0,1.696,1.388,3.085,3.085,3.085c1.697,0,3.085-1.388,3.085-3.085v-12.338C166.574,377.712,165.186,376.324,163.49,376.324
		L163.49,376.324z M203.59,172.739h-12.338c-6.786,0-12.338,5.552-12.338,12.338h37.015
		C215.928,178.292,210.376,172.739,203.59,172.739L203.59,172.739z M240.605,349.124v-12.9c0-8.557-5.077-15.923-12.338-19.415
		V210.174l15.349,53.167l0.056,0.185l0.062,0.179c2.597,7.261,7.101,13.714,13.023,18.65l0.364,0.302l0.407,0.247l38.218,22.993
		c4.51,3.899,7.446,9.279,8.322,15.386l3.369,18.933L240.605,349.124z M289.959,357.816h-37.015v-4.115l37.015-4.935V357.816z
		 M283.79,366.102c0,4.942-1.925,9.593-5.423,13.085l-6.916,6.922l-6.916-6.922c-3.498-3.492-5.423-8.143-5.423-13.085v-2.116
		h24.677L283.79,366.102L283.79,366.102z M234.436,363.986H203.59v-27.762c0-8.501,6.922-15.423,15.423-15.423
		s15.423,6.922,15.423,15.423L234.436,363.986L234.436,363.986z M197.42,336.224c0-11.876-9.717-21.592-21.592-21.592
		c-1.055,0-2.067,0.167-3.085,0.315V198.65c0-14.738,2.11-29.378,6.268-43.518l1.296-4.43c0.123-0.062,0.265-0.037,0.383-0.123
		c1.647-1.16,5.349-2.024,9.71-2.517h16.404c3.233,0.432,5.836,1.172,7.039,2.276c0.21,0.191,0.457,0.296,0.703,0.419l1.283,4.374
		c4.158,14.14,6.268,28.78,6.268,43.518v116.296c-1.018-0.148-2.03-0.315-3.085-0.315
		C207.137,314.632,197.42,324.348,197.42,336.224L197.42,336.224z M191.251,363.986h-30.846v-27.762
		c0-8.501,6.922-15.423,15.423-15.423s15.423,6.922,15.423,15.423L191.251,363.986L191.251,363.986z M154.236,336.224v12.9
		l-66.831-8.908l3.399-19.137c0.845-5.91,3.782-11.283,8.291-15.182l38.218-22.993l0.407-0.247l0.364-0.302
		c5.922-4.935,10.426-11.388,13.023-18.65l0.062-0.179l0.056-0.185l15.349-53.167v106.635
		C159.313,320.301,154.236,327.667,154.236,336.224L154.236,336.224z M141.897,357.816h-37.015v-9.05l37.015,4.935V357.816z
		 M135.728,366.102c0,4.942-1.925,9.593-5.423,13.085l-6.916,6.922l-6.916-6.922c-3.498-3.492-5.423-8.143-5.423-13.085v-2.116
		h24.677L135.728,366.102L135.728,366.102z M104.882,125.946c0-6.107,1.789-12.024,5.182-17.107l13.325-19.994l13.325,19.994
		c3.393,5.083,5.182,11,5.182,17.107v142.583c-2.091,3.405-4.664,6.509-7.761,9.087l-29.255,17.601V125.946H104.882z
		 M212.251,142.967c-8.353-2.35-21.728-1.789-29.791,0.389l14.886-50.804c0.006-0.006,0.037-0.012,0.074-0.012L212.251,142.967z
		 M148.067,125.946V94.545c0-8.254,2.807-16.379,7.909-22.869l0.198-0.247l0.166-0.265l41.075-64.919l41.025,67.763l0.191,0.321
		l0.235,0.296c5.102,6.49,7.909,14.609,7.909,22.863v28.459V252.04l-19.032-65.918c-0.87-11.08-2.85-22.049-5.996-32.728
		l-18.409-62.593c-0.864-2.955-3.393-4.43-5.916-4.43c-2.523,0-5.052,1.474-5.916,4.43l-18.409,62.593
		c-3.146,10.679-5.127,21.648-5.996,32.728l-19.032,65.918V125.946H148.067z M252.943,125.946c0-6.107,1.789-12.024,5.182-17.107
		l13.325-19.994l13.325,19.994c3.393,5.083,5.182,11,5.182,17.107v169.271l-29.255-17.601c-3.097-2.579-5.67-5.682-7.761-9.087
		V125.946H252.943z M310.144,320.203c-1.08-7.557-4.923-14.448-10.79-19.334l-3.227-1.937V125.946
		c0-7.304-2.165-14.448-6.219-20.531l-15.892-23.838c-0.611-0.919-1.586-1.376-2.566-1.376c-0.98,0-1.956,0.457-2.567,1.376
		l-15.892,23.838c-0.018,0.025-0.031,0.055-0.049,0.086v-8.014c0-9.673-3.251-19.069-9.229-26.676L202.268,2.357
		C201.034,0.784,199.227,0,197.419,0s-3.615,0.783-4.849,2.357l-41.445,65.505c-5.978,7.607-9.229,17.002-9.229,26.682v10.957
		c-0.018-0.031-0.031-0.062-0.049-0.086l-15.892-23.838c-0.611-0.919-1.586-1.376-2.566-1.376c-0.981,0-1.956,0.457-2.567,1.376
		l-15.892,23.838c-4.053,6.083-6.219,13.227-6.219,20.531v172.985l-3.227,1.937c-5.867,4.886-9.71,11.777-10.79,19.334
		l-4.491,25.275l18.508,2.468v9.871c0,3.393,2.776,6.169,6.169,6.169v2.116c0,6.546,2.597,12.82,7.23,17.453l11.277,11.277
		l11.277-11.277c4.633-4.633,7.23-10.907,7.23-17.453v-2.116c3.393,0,6.169-2.776,6.169-6.169v-3.288l6.169,0.821v8.637
		c0,3.393,2.776,6.169,6.169,6.169h30.846c3.393,0,6.169-2.776,6.169-6.169c0,3.393,2.776,6.169,6.169,6.169h30.846
		c3.393,0,6.169-2.776,6.169-6.169v-8.637l6.169-0.821v3.288c0,3.393,2.776,6.169,6.169,6.169v2.116
		c0,6.546,2.597,12.82,7.23,17.453l11.277,11.277l11.277-11.277c4.633-4.633,7.23-10.907,7.23-17.453v-2.116
		c3.393,0,6.169-2.776,6.169-6.169v-9.871l18.508-2.468L310.144,320.203z"/>
</g>
<g>
</g>
<g>
</g>
<g>
</g>
<g>
</g>
<g>
</g>
<g>
</g>
<g>
</g>
<g>
</g>
<g>
</g>
<g>
</g>
<g>
</g>
<g>
</g>
<g>
</g>
<g>
</g>
<g>
</g>
</svg>
